<svg xmlns="http://www.w3.org/2000/svg" x="0px" y="0px"
        width="48" height="48"
        viewBox="0 0 48 48"
        style=" fill:#000000;">
        <path fill="#fcbf95" d="M11.533,33.529c-0.956-1.216-1.753-2.556-2.366-3.976c-0.432-1.001-0.776-2.062-0.793-3.153 C8.357,25.31,8.7,24.179,9.477,23.414c0.778-0.765,2.027-1.082,3.009-0.608c0.851,0.411,1.36,1.3,1.715,2.175 c1.006,2.479,1.189,5.285,0.514,7.874c-0.094,0.362-0.216,0.737-0.492,0.989C13.671,34.349,12.638,34.851,11.533,33.529z"></path><path fill="#010101" d="M13.019,34.873c-0.043,0-0.086-0.001-0.131-0.004c-0.623-0.043-1.208-0.386-1.738-1.021 l-0.009-0.012c-0.982-1.249-1.801-2.624-2.433-4.086c-0.553-1.282-0.817-2.344-0.834-3.343c-0.021-1.326,0.437-2.548,1.253-3.351 c0.975-0.96,2.446-1.246,3.577-0.701c1.082,0.522,1.637,1.641,1.96,2.437c1.049,2.582,1.239,5.49,0.535,8.188 c-0.115,0.443-0.273,0.899-0.639,1.232C14.225,34.521,13.691,34.873,13.019,34.873z M11.922,33.213 c0.347,0.414,0.694,0.635,1.034,0.658c0.376,0.021,0.718-0.201,0.931-0.396c0.182-0.166,0.273-0.473,0.346-0.747 c0.648-2.49,0.474-5.175-0.494-7.559c-0.415-1.021-0.882-1.63-1.47-1.913c-0.747-0.361-1.772-0.145-2.44,0.514 c-0.622,0.612-0.97,1.568-0.954,2.622c0.014,0.863,0.253,1.805,0.752,2.962C10.223,30.735,10.995,32.033,11.922,33.213z"></path><path fill="#fcbf95" d="M37.202,34.232c-0.465,0.402-1.072,0.8-1.651,0.594c-0.555-0.197-0.788-0.851-0.874-1.434 c-0.284-1.906,0.302-3.642,0.878-5.427c0.358-1.108,0.612-2.705,1.547-3.508c0.972-0.834,2.614-0.504,3.37,0.474 c0.966,1.25,0.603,3.211,0.121,4.571C39.937,31.354,38.674,32.959,37.202,34.232z"></path><path fill="#010101" d="M35.878,35.383c-0.161,0-0.326-0.025-0.494-0.084c-0.642-0.229-1.057-0.861-1.201-1.831 c-0.294-1.972,0.288-3.772,0.851-5.513l0.046-0.142c0.072-0.227,0.141-0.474,0.212-0.729c0.295-1.064,0.63-2.271,1.485-3.005 c0.525-0.451,1.23-0.655,1.993-0.579c0.834,0.085,1.618,0.507,2.098,1.128c1.185,1.53,0.632,3.817,0.197,5.044 c-0.629,1.774-1.852,3.481-3.535,4.938l0,0C37.287,34.82,36.637,35.383,35.878,35.383z M38.46,24.483 c-0.401,0-0.763,0.123-1.033,0.355c-0.624,0.534-0.915,1.585-1.172,2.512c-0.075,0.271-0.147,0.531-0.225,0.77l-0.046,0.143 c-0.552,1.706-1.072,3.317-0.813,5.058c0.04,0.267,0.174,0.902,0.548,1.036c0.271,0.092,0.662-0.074,1.156-0.502l0,0 c1.553-1.344,2.676-2.905,3.246-4.517c0.296-0.833,0.883-2.9-0.045-4.099c-0.311-0.402-0.851-0.688-1.408-0.745 C38.598,24.487,38.527,24.483,38.46,24.483z"></path><path fill="#fcbf95" d="M15.667,37.971c3.447,5.071,6.598,7.763,10.025,7.525c2.993-0.208,9.657-5.91,10.675-11.651 c0.72-4.06,1.368-11.458-0.352-15.075c-2.475-5.203-6.738-8.181-12.461-7.514c-4.219,0.492-10.094,3.715-11.139,8.446 c-0.466,2.109,0.244,5.25,0.396,7.388C13.048,30.451,13.761,35.167,15.667,37.971z"></path><path fill="#010101" d="M25.26,46.011c-3.269,0.001-6.377-2.418-10.006-7.759l0,0c-2.093-3.077-2.742-8.292-2.943-11.127 c-0.043-0.613-0.134-1.311-0.229-2.042c-0.237-1.832-0.506-3.908-0.156-5.489c1.049-4.745,6.822-8.28,11.569-8.835 c5.659-0.655,10.267,2.11,12.971,7.796c2.21,4.646,0.585,14.293,0.393,15.378c-1.025,5.781-7.788,11.83-11.132,12.063 C25.57,46.006,25.415,46.011,25.26,46.011z M25.084,11.665c-0.482,0-0.973,0.029-1.474,0.088c-3.842,0.448-9.7,3.497-10.708,8.058 c-0.313,1.409-0.056,3.394,0.171,5.145c0.098,0.752,0.19,1.469,0.235,2.1c0.193,2.734,0.812,7.751,2.771,10.635l0,0 c3.579,5.266,6.535,7.538,9.576,7.308c2.671-0.186,9.221-5.623,10.218-11.239c0.678-3.819,1.375-11.229-0.311-14.773 C33.298,14.222,29.612,11.665,25.084,11.665z"></path><path fill="#010101" d="M28.16,28.002c-0.195,0-0.381-0.115-0.462-0.308c-0.105-0.255,0.015-0.548,0.27-0.653 c1.283-0.536,1.743-0.682,2.897-0.92c1.516-0.312,2.664-0.278,3.832,0.11c0.263,0.087,0.404,0.37,0.317,0.632 s-0.37,0.405-0.632,0.317c-1.005-0.334-1.964-0.357-3.316-0.079c-1.086,0.223-1.492,0.352-2.714,0.862 C28.29,27.989,28.225,28.002,28.16,28.002z"></path><path fill="#513620" d="M32.424,27.566c0.078,0.527-0.086,1.086-0.369,1.435c-0.202,0.25-0.465,0.406-0.735,0.408 c-0.27,0.002-0.545-0.158-0.726-0.448c-0.28-0.451-0.288-1.163-0.067-1.664C30.97,26.291,32.217,26.172,32.424,27.566z"></path><path fill="#010101" d="M31.315,29.909c-0.451,0-0.878-0.255-1.146-0.683c-0.356-0.575-0.398-1.451-0.101-2.13 c0.315-0.719,0.965-1.145,1.626-1.055c0.644,0.086,1.102,0.628,1.224,1.449c0,0.001,0,0.001,0,0.001 c0.096,0.645-0.086,1.344-0.475,1.823c-0.307,0.38-0.705,0.591-1.12,0.594C31.321,29.909,31.318,29.909,31.315,29.909z M31.527,27.03c-0.173,0-0.404,0.154-0.542,0.469c-0.162,0.369-0.147,0.907,0.034,1.199c0.081,0.13,0.194,0.211,0.296,0.211h0.001 c0.107-0.001,0.238-0.084,0.351-0.223c0.176-0.218,0.325-0.625,0.264-1.048c-0.054-0.355-0.191-0.582-0.368-0.605 C31.551,27.031,31.539,27.03,31.527,27.03z"></path><path fill="#010101" d="M25.584,35.021c-0.257,0-0.476-0.197-0.497-0.459c-0.081-0.976-0.229-3.813,0.053-5.207 c0.055-0.271,0.317-0.445,0.59-0.391c0.271,0.055,0.445,0.319,0.391,0.59c-0.239,1.177-0.128,3.827-0.037,4.926 c0.023,0.274-0.182,0.517-0.457,0.539C25.612,35.021,25.599,35.021,25.584,35.021z"></path><path fill="#010101" d="M29.49,25.049c-0.135,0-0.269-0.054-0.367-0.16c-0.188-0.203-0.175-0.52,0.027-0.707 c0.719-0.665,2.194-1.002,3.337-1.042c0.271-0.008,0.507,0.207,0.518,0.482c0.009,0.276-0.207,0.508-0.482,0.518 c-1.098,0.037-2.255,0.371-2.692,0.776C29.733,25.005,29.612,25.049,29.49,25.049z"></path><path fill="#010101" d="M26.203,39.712c-1.242,0-2.628-0.117-3.865-0.334c-0.272-0.047-0.454-0.307-0.406-0.578 c0.047-0.273,0.31-0.461,0.578-0.406c1.484,0.259,3.188,0.367,4.563,0.297c0.272-0.03,0.512,0.197,0.525,0.473 c0.015,0.275-0.196,0.511-0.473,0.525C26.831,39.704,26.521,39.712,26.203,39.712z"></path><path fill="#513620" d="M43.059,23.111c-0.766-3.122-2.113-7.649-3.83-10.081c1.401-0.549,1.5-0.055,2.218-0.157 c-1.675-2.627-6.356-6.655-9.42-6.911c0.229-0.621,0.867-1.132,1.378-1.77c-3.447-0.383-5.473-0.322-6.906,0.854 c-1.557-1.592-6.961-0.628-8.78-1.293c0.383,1.228,0.718,1.279,1.005,2.098c-3.064,0.255-5.106,2.298-7.787,3.447 c0.192,0.972,1.388,0.763,2.346,1.275c-2.681,1.058-4.005,1.789-6.559,3.704c0.894,0.638,1.484,0.902,2.037,1.971 c-2.114,2.3-2.564,5.532-1.75,9.422c0.957-1.791,1.745-2.553,3.351-2.968c0.574,2.379,0.264,3.936,1.702,6.545 c0.137-2.166,1-4.475,2.235-6.67c0.497,2.932,1.552,5.77,3.106,8.306c0.248-0.921,0.496-1.843,0.743-2.764 c0.222,2.214,1.56,5.02,2.794,6.872c0.606-3.941,2.245-7.719,4.711-10.852c0.072-0.092,0.17-0.194,0.286-0.172 c0.093,0.017,0.151,0.109,0.198,0.192c0.406,0.728,0.246,0.805,0.652,1.533c0.52-1.26,1.135-2.48,1.838-3.647 c0.846-1.406,1.854-2.931,3.02-4.218c0.981,0.967,1.892,1.904,2.492,2.709c0.128-0.58,0.223-1.331,0.234-1.626 c2.011,2.866,3.932,7.773,4.281,10.793c1.293-3.023,2.326-4.345,1.991-7.672C41.527,22.445,42.293,22.804,43.059,23.111z"></path><path fill="#010101" d="M20.941,35.489c-0.165,0-0.322-0.082-0.416-0.223c-0.852-1.278-1.853-3.164-2.431-5.026 l-0.208,0.771c-0.052,0.193-0.213,0.337-0.411,0.365c-0.193,0.023-0.394-0.063-0.498-0.234c-1.323-2.161-2.312-4.586-2.892-7.086 c-0.91,1.874-1.422,3.626-1.523,5.221c-0.014,0.223-0.173,0.408-0.39,0.457c-0.221,0.045-0.44-0.053-0.547-0.247 c-1.016-1.843-1.197-3.18-1.39-4.596c-0.068-0.498-0.138-1.009-0.247-1.556c-1.09,0.389-1.733,1.063-2.537,2.568 c-0.099,0.187-0.296,0.285-0.513,0.26c-0.208-0.03-0.375-0.187-0.418-0.393c-0.851-4.065-0.302-7.288,1.629-9.587 c-0.35-0.562-0.72-0.815-1.283-1.2c-0.137-0.093-0.281-0.191-0.435-0.301c-0.13-0.093-0.207-0.242-0.209-0.401 s0.072-0.311,0.2-0.406c2.116-1.587,3.422-2.39,5.405-3.246c-0.594-0.162-1.224-0.426-1.383-1.235 c-0.046-0.231,0.076-0.463,0.293-0.557c0.9-0.386,1.749-0.89,2.57-1.377c1.418-0.841,2.879-1.707,4.664-2.017 C17.95,5.406,17.926,5.367,17.9,5.327c-0.198-0.313-0.423-0.667-0.66-1.425c-0.057-0.182-0.005-0.38,0.133-0.512 s0.336-0.174,0.517-0.107c0.63,0.23,1.86,0.241,3.163,0.253c2.099,0.019,4.261,0.038,5.462,0.873 c1.568-1.065,3.691-1.076,6.945-0.715C33.641,3.715,33.797,3.832,33.866,4s0.042,0.361-0.071,0.504 c-0.174,0.217-0.36,0.42-0.543,0.617c-0.147,0.159-0.292,0.315-0.417,0.468c3.259,0.771,7.464,4.555,9.034,7.015 c0.091,0.143,0.104,0.323,0.032,0.478c-0.07,0.154-0.215,0.262-0.384,0.286c-0.346,0.049-0.595-0.007-0.795-0.05 c-0.2-0.044-0.38-0.085-0.715-0.012c1.671,2.723,2.919,7.17,3.536,9.686c0.045,0.182-0.016,0.374-0.157,0.497 c-0.142,0.122-0.342,0.157-0.514,0.086c-0.553-0.221-1.115-0.474-1.673-0.731c0.079,2.305-0.559,3.692-1.407,5.537 c-0.213,0.464-0.442,0.963-0.68,1.519c-0.09,0.209-0.299,0.327-0.532,0.299c-0.224-0.033-0.398-0.213-0.425-0.438 c-0.301-2.602-1.805-6.623-3.466-9.43c-0.021,0.107-0.042,0.213-0.063,0.312c-0.042,0.191-0.191,0.341-0.383,0.382 c-0.193,0.042-0.391-0.033-0.506-0.189c-0.523-0.701-1.309-1.522-2.067-2.279c-0.838,0.983-1.679,2.188-2.616,3.746 c-0.69,1.146-1.297,2.351-1.805,3.58c-0.073,0.178-0.241,0.298-0.433,0.309c-0.189,0.015-0.372-0.088-0.466-0.255 c-0.229-0.411-0.303-0.652-0.368-0.864c-0.036-0.119-0.069-0.228-0.132-0.37c-2.325,3.05-3.84,6.614-4.416,10.365 c-0.031,0.204-0.185,0.367-0.386,0.412C21.014,35.485,20.978,35.489,20.941,35.489z M18.147,27.618 c0.014,0,0.027,0.001,0.041,0.002c0.24,0.02,0.433,0.208,0.456,0.448c0.172,1.702,1.066,3.841,2.039,5.548 c0.753-3.562,2.32-6.922,4.576-9.789c0.283-0.358,0.577-0.394,0.771-0.354c0.329,0.062,0.482,0.335,0.541,0.438 c0.109,0.196,0.184,0.354,0.237,0.487c0.416-0.894,0.881-1.769,1.389-2.613c1.102-1.828,2.079-3.193,3.078-4.295 c0.091-0.101,0.22-0.16,0.355-0.164c0.14-0.006,0.268,0.049,0.365,0.144c0.608,0.599,1.268,1.262,1.831,1.899 c0.025-0.206,0.042-0.378,0.045-0.479c0.008-0.214,0.152-0.4,0.358-0.461c0.207-0.061,0.429,0.017,0.551,0.192 c1.718,2.447,3.377,6.335,4.079,9.393c0.008-0.018,0.017-0.034,0.024-0.052c0.948-2.063,1.521-3.309,1.262-5.883 c-0.019-0.179,0.062-0.354,0.208-0.458c0.147-0.104,0.338-0.121,0.502-0.044c0.55,0.258,1.025,0.48,1.47,0.679 c-0.709-2.715-1.944-6.726-3.506-8.939c-0.089-0.125-0.115-0.284-0.07-0.432c0.044-0.147,0.153-0.266,0.296-0.322 c0.605-0.237,0.999-0.298,1.347-0.297c-1.942-2.43-5.85-5.593-8.408-5.807c-0.155-0.013-0.296-0.098-0.38-0.229 s-0.102-0.295-0.048-0.441c0.167-0.451,0.491-0.835,0.825-1.199c-2.659-0.247-4.381-0.133-5.566,0.843 c-0.201,0.164-0.493,0.148-0.675-0.037c-0.804-0.821-3.184-0.843-5.097-0.859c-0.945-0.009-1.808-0.017-2.513-0.101 c0.071,0.132,0.142,0.243,0.214,0.356c0.15,0.238,0.307,0.484,0.45,0.895c0.052,0.146,0.032,0.308-0.052,0.438 c-0.085,0.13-0.225,0.213-0.379,0.226c-1.887,0.157-3.372,1.038-4.944,1.972c-0.689,0.409-1.397,0.829-2.152,1.192 c0.14,0.074,0.355,0.137,0.686,0.218c0.361,0.09,0.771,0.19,1.164,0.4c0.172,0.092,0.275,0.275,0.264,0.47 c-0.011,0.195-0.134,0.365-0.315,0.437c-2.489,0.981-3.758,1.666-5.884,3.224c0.609,0.421,1.144,0.83,1.623,1.757 c0.097,0.187,0.066,0.413-0.076,0.568c-1.68,1.826-2.301,4.406-1.854,7.68c0.805-1.149,1.654-1.712,2.962-2.05 c0.128-0.034,0.268-0.014,0.382,0.056c0.115,0.069,0.198,0.181,0.229,0.312c0.192,0.798,0.287,1.497,0.379,2.173 c0.126,0.926,0.24,1.767,0.582,2.729c0.348-1.616,1.035-3.343,2.055-5.154c0.104-0.185,0.31-0.287,0.521-0.247 c0.209,0.036,0.372,0.2,0.407,0.409c0.418,2.468,1.256,4.897,2.443,7.093l0.43-1.598C17.724,27.769,17.923,27.618,18.147,27.618z"></path><g><path fill="#010101" d="M18.015,21.625c-0.089,0-0.179-0.023-0.26-0.073c-0.236-0.144-0.311-0.451-0.167-0.687l0.717-1.177 c0.803-1.315,1.901-3.117,3.699-3.834c0.188-0.072,0.401-0.029,0.542,0.114c0.142,0.144,0.183,0.357,0.104,0.543 c-0.504,1.207-0.784,2.538-0.81,3.849c-0.007,0.275-0.24,0.464-0.51,0.49c-0.276-0.006-0.495-0.233-0.49-0.51 c0.02-0.967,0.165-1.942,0.426-2.881c-0.802,0.676-1.442,1.657-2.108,2.749l-0.717,1.176C18.348,21.54,18.183,21.625,18.015,21.625 z"></path></g><g><path fill="#010101" d="M26.707,16.426c-0.058,0-0.117-0.01-0.174-0.031c-0.259-0.097-0.391-0.384-0.295-0.643 c0.557-1.499,1.373-2.866,2.428-4.063c0.182-0.208,0.498-0.229,0.705-0.045c0.208,0.182,0.228,0.498,0.045,0.705 c-0.973,1.105-1.727,2.368-2.24,3.751C27.101,16.302,26.91,16.426,26.707,16.426z"></path></g><g><path fill="#010101" d="M17.154,11.451c-0.152,0-0.303-0.069-0.4-0.201c-0.165-0.221-0.12-0.534,0.102-0.699 c1.588-1.187,3.621-1.789,5.609-1.626c0.275,0.021,0.48,0.262,0.459,0.537c-0.021,0.275-0.269,0.502-0.537,0.459 c-1.737-0.133-3.536,0.388-4.934,1.431C17.363,11.419,17.259,11.451,17.154,11.451z"></path></g><g><path fill="#010101" d="M13.414,18.442c-0.063,0-0.126-0.012-0.187-0.036c-0.257-0.104-0.381-0.395-0.277-0.65 c0.604-1.498,1.587-2.825,2.844-3.836c0.215-0.173,0.53-0.14,0.703,0.076c0.173,0.215,0.139,0.53-0.076,0.703 c-1.124,0.904-2.004,2.09-2.543,3.43C13.8,18.324,13.612,18.442,13.414,18.442z"></path></g></svg>