<svg xmlns="http://www.w3.org/2000/svg" xmlns:xlink="http://www.w3.org/1999/xlink" id="visual" width="960" height="540" version="1.1" viewBox="0 0 960 540"><path fill="#00cc8e" d="M0 152L87 158L175 136L262 179L349 104L436 125L524 190L611 104L698 131L785 93L873 136L960 141L960 0L873 0L785 0L698 0L611 0L524 0L436 0L349 0L262 0L175 0L87 0L0 0Z"/><path fill="#00b98a" d="M0 266L87 222L175 179L262 325L349 168L436 174L524 266L611 222L698 195L785 163L873 276L960 260L960 139L873 134L785 91L698 129L611 102L524 188L436 123L349 102L262 177L175 134L87 156L0 150Z"/><path fill="#00a784" d="M0 330L87 255L175 260L262 390L349 217L436 233L524 298L611 309L698 276L785 249L873 320L960 303L960 258L873 274L785 161L698 193L611 220L524 264L436 172L349 166L262 323L175 177L87 220L0 264Z"/><path fill="#00957c" d="M0 444L87 309L175 352L262 438L349 309L436 320L524 347L611 384L698 320L785 347L873 422L960 379L960 301L873 318L785 247L698 274L611 307L524 296L436 231L349 215L262 388L175 258L87 253L0 328Z"/><path fill="#038373" d="M0 541L87 541L175 541L262 541L349 541L436 541L524 541L611 541L698 541L785 541L873 541L960 541L960 377L873 420L785 345L698 318L611 382L524 345L436 318L349 307L262 436L175 350L87 307L0 442Z"/></svg>