<svg xmlns="http://www.w3.org/2000/svg" xmlns:xlink="http://www.w3.org/1999/xlink" id="visual" width="960" height="540" version="1.1" viewBox="0 0 960 540"><rect width="960" height="540" x="0" y="0" fill="#202731"/><path fill="#3c31dd" stroke-linecap="round" stroke-linejoin="miter" d="M0 457L10 438C20 419 40 381 60 364.7C80 348.3 100 353.7 120 368.3C140 383 160 407 180 416.7C200 426.3 220 421.7 240 416C260 410.3 280 403.7 300 403.2C320 402.7 340 408.3 360 404.7C380 401 400 388 420 396.8C440 405.7 460 436.3 480 450C500 463.7 520 460.3 540 444.7C560 429 580 401 600 401.8C620 402.7 640 432.3 660 428.2C680 424 700 386 720 376.5C740 367 760 386 780 390C800 394 820 383 840 389.7C860 396.3 880 420.7 900 433.5C920 446.3 940 447.7 950 448.3L960 449L960 541L950 541C940 541 920 541 900 541C880 541 860 541 840 541C820 541 800 541 780 541C760 541 740 541 720 541C700 541 680 541 660 541C640 541 620 541 600 541C580 541 560 541 540 541C520 541 500 541 480 541C460 541 440 541 420 541C400 541 380 541 360 541C340 541 320 541 300 541C280 541 260 541 240 541C220 541 200 541 180 541C160 541 140 541 120 541C100 541 80 541 60 541C40 541 20 541 10 541L0 541Z"/></svg>