<svg xmlns="http://www.w3.org/2000/svg" xmlns:xlink="http://www.w3.org/1999/xlink" id="visual" width="960" height="540" version="1.1" viewBox="0 0 960 540"><path fill="#fa7268" d="M0 55L48 55L48 109L96 109L96 71L144 71L144 98L192 98L192 50L240 50L240 77L288 77L288 55L336 55L336 50L384 50L384 104L432 104L432 17L480 17L480 66L528 66L528 12L576 12L576 17L624 17L624 12L672 12L672 93L720 93L720 55L768 55L768 114L816 114L816 87L864 87L864 109L912 109L912 12L960 12L960 109L960 0L960 0L912 0L912 0L864 0L864 0L816 0L816 0L768 0L768 0L720 0L720 0L672 0L672 0L624 0L624 0L576 0L576 0L528 0L528 0L480 0L480 0L432 0L432 0L384 0L384 0L336 0L336 0L288 0L288 0L240 0L240 0L192 0L192 0L144 0L144 0L96 0L96 0L48 0L48 0L0 0Z"/><path fill="#ea5e66" d="M0 71L48 71L48 206L96 206L96 185L144 185L144 185L192 185L192 104L240 104L240 228L288 228L288 206L336 206L336 185L384 185L384 190L432 190L432 66L480 66L480 87L528 87L528 190L576 190L576 179L624 179L624 201L672 201L672 212L720 212L720 239L768 239L768 147L816 147L816 222L864 222L864 239L912 239L912 109L960 109L960 222L960 107L960 10L912 10L912 107L864 107L864 85L816 85L816 112L768 112L768 53L720 53L720 91L672 91L672 10L624 10L624 15L576 15L576 10L528 10L528 64L480 64L480 15L432 15L432 102L384 102L384 48L336 48L336 53L288 53L288 75L240 75L240 48L192 48L192 96L144 96L144 69L96 69L96 107L48 107L48 53L0 53Z"/><path fill="#d84a64" d="M0 239L48 239L48 298L96 298L96 460L144 460L144 260L192 260L192 330L240 330L240 395L288 395L288 255L336 255L336 341L384 341L384 222L432 222L432 449L480 449L480 276L528 276L528 411L576 411L576 228L624 228L624 363L672 363L672 390L720 390L720 309L768 309L768 357L816 357L816 303L864 303L864 260L912 260L912 141L960 141L960 244L960 220L960 107L912 107L912 237L864 237L864 220L816 220L816 145L768 145L768 237L720 237L720 210L672 210L672 199L624 199L624 177L576 177L576 188L528 188L528 85L480 85L480 64L432 64L432 188L384 188L384 183L336 183L336 204L288 204L288 226L240 226L240 102L192 102L192 183L144 183L144 183L96 183L96 204L48 204L48 69L0 69Z"/><path fill="#c53762" d="M0 460L48 460L48 438L96 438L96 514L144 514L144 498L192 498L192 428L240 428L240 471L288 471L288 525L336 525L336 503L384 503L384 449L432 449L432 514L480 514L480 417L528 417L528 455L576 455L576 395L624 395L624 476L672 476L672 487L720 487L720 492L768 492L768 428L816 428L816 471L864 471L864 509L912 509L912 417L960 417L960 417L960 242L960 139L912 139L912 258L864 258L864 301L816 301L816 355L768 355L768 307L720 307L720 388L672 388L672 361L624 361L624 226L576 226L576 409L528 409L528 274L480 274L480 447L432 447L432 220L384 220L384 339L336 339L336 253L288 253L288 393L240 393L240 328L192 328L192 258L144 258L144 458L96 458L96 296L48 296L48 237L0 237Z"/><path fill="#b0235f" d="M0 541L48 541L48 541L96 541L96 541L144 541L144 541L192 541L192 541L240 541L240 541L288 541L288 541L336 541L336 541L384 541L384 541L432 541L432 541L480 541L480 541L528 541L528 541L576 541L576 541L624 541L624 541L672 541L672 541L720 541L720 541L768 541L768 541L816 541L816 541L864 541L864 541L912 541L912 541L960 541L960 541L960 415L960 415L912 415L912 507L864 507L864 469L816 469L816 426L768 426L768 490L720 490L720 485L672 485L672 474L624 474L624 393L576 393L576 453L528 453L528 415L480 415L480 512L432 512L432 447L384 447L384 501L336 501L336 523L288 523L288 469L240 469L240 426L192 426L192 496L144 496L144 512L96 512L96 436L48 436L48 458L0 458Z"/></svg>