<svg xmlns="http://www.w3.org/2000/svg" xmlns:xlink="http://www.w3.org/1999/xlink" id="visual" width="2000" height="768" version="1.1" viewBox="0 0 2000 768"><rect width="2000" height="768" x="0" y="0" fill="#0f0f10"/><path fill="#202731" stroke-linecap="round" stroke-linejoin="miter" d="M0 146L55.5 164C111 182 222 218 333.2 229.8C444.3 241.7 555.7 229.3 666.8 212C778 194.7 889 172.3 1000 156C1111 139.7 1222 129.3 1333.2 129.3C1444.3 129.3 1555.7 139.7 1666.8 157.7C1778 175.7 1889 201.3 1944.5 214.2L2000 227L2000 0L1944.5 0C1889 0 1778 0 1666.8 0C1555.7 0 1444.3 0 1333.2 0C1222 0 1111 0 1000 0C889 0 778 0 666.8 0C555.7 0 444.3 0 333.2 0C222 0 111 0 55.5 0L0 0Z"/></svg>