<svg id="visual" viewBox="0 0 960 540" width="960" height="540" xmlns="http://www.w3.org/2000/svg" xmlns:xlink="http://www.w3.org/1999/xlink" version="1.1"><rect x="0" y="0" width="960" height="540" fill="#140021"></rect><path d="M499 0L390 0L390 30L346 30L346 60L410 60L410 90L423 90L423 120L326 120L326 150L328 150L328 180L570 180L570 210L347 210L347 240L331 240L331 270L558 270L558 300L532 300L532 330L465 330L465 360L467 360L467 390L392 390L392 420L498 420L498 450L556 450L556 480L372 480L372 510L564 510L564 540L0 540L0 510L0 510L0 480L0 480L0 450L0 450L0 420L0 420L0 390L0 390L0 360L0 360L0 330L0 330L0 300L0 300L0 270L0 270L0 240L0 240L0 210L0 210L0 180L0 180L0 150L0 150L0 120L0 120L0 90L0 90L0 60L0 60L0 30L0 30L0 0L0 0Z" fill="#9900ff"></path><path d="M197 0L291 0L291 30L198 30L198 60L385 60L385 90L319 90L319 120L322 120L322 150L213 150L213 180L333 180L333 210L356 210L356 240L346 240L346 270L275 270L275 300L324 300L324 330L399 330L399 360L262 360L262 390L289 390L289 420L224 420L224 450L379 450L379 480L294 480L294 510L398 510L398 540L0 540L0 510L0 510L0 480L0 480L0 450L0 450L0 420L0 420L0 390L0 390L0 360L0 360L0 330L0 330L0 300L0 300L0 270L0 270L0 240L0 240L0 210L0 210L0 180L0 180L0 150L0 150L0 120L0 120L0 90L0 90L0 60L0 60L0 30L0 30L0 0L0 0Z" fill="#7700c6"></path><path d="M196 0L173 0L173 30L267 30L267 60L142 60L142 90L250 90L250 120L181 120L181 150L226 150L226 180L226 180L226 210L166 210L166 240L183 240L183 270L71 270L71 300L221 300L221 330L105 330L105 360L244 360L244 390L92 390L92 420L133 420L133 450L219 450L219 480L128 480L128 510L254 510L254 540L0 540L0 510L0 510L0 480L0 480L0 450L0 450L0 420L0 420L0 390L0 390L0 360L0 360L0 330L0 330L0 300L0 300L0 270L0 270L0 240L0 240L0 210L0 210L0 180L0 180L0 150L0 150L0 120L0 120L0 90L0 90L0 60L0 60L0 30L0 30L0 0L0 0Z" fill="#560090"></path></svg>