<svg xmlns="http://www.w3.org/2000/svg" xmlns:xlink="http://www.w3.org/1999/xlink" id="visual" width="960" height="540" version="1.1" viewBox="0 0 960 540"><rect width="960" height="540" x="0" y="0" fill="#202731"/><path fill="#0f0f10" stroke-linecap="round" stroke-linejoin="miter" d="M0 443L26.7 433C53.3 423 106.7 403 160 399.8C213.3 396.7 266.7 410.3 320 420.5C373.3 430.7 426.7 437.3 480 430.3C533.3 423.3 586.7 402.7 640 389.5C693.3 376.3 746.7 370.7 800 371.3C853.3 372 906.7 379 933.3 382.5L960 386L960 541L933.3 541C906.7 541 853.3 541 800 541C746.7 541 693.3 541 640 541C586.7 541 533.3 541 480 541C426.7 541 373.3 541 320 541C266.7 541 213.3 541 160 541C106.7 541 53.3 541 26.7 541L0 541Z"/></svg>